<svg xmlns="http://www.w3.org/2000/svg" viewBox="0 0 720 320" width="720" height="320" role="img" aria-label="Currently building: Helios AI Runtime, Distributed Scheduler, Knowledge Engine, Multi-Agent Framework, Deep Research Platform">
<title>Currently Building - Progress</title>
<defs>
<style><![CDATA[
text{font-family:'SFMono-Regular',Consolas,'Liberation Mono',Menlo,monospace}
@keyframes fadeSlide{from{opacity:0;transform:translateX(-12px)}to{opacity:1;transform:translateX(0)}}
@keyframes grow{from{transform:scaleX(0)}to{transform:scaleX(1)}}
@keyframes shimmer{0%{transform:translateX(-48px)}100%{transform:translateX(420px)}}
@keyframes pulse{0%,100%{opacity:.5}50%{opacity:1}}
.row{animation:fadeSlide .55s ease both}
.bar{transform-box:fill-box;transform-origin:left center;animation:grow 1.15s cubic-bezier(.22,1,.36,1) both}
.dot{animation:pulse 2.2s ease-in-out infinite}
.sh{animation:shimmer 2.8s ease-in-out infinite}
]]></style>
<linearGradient id="border" x1="0" y1="0" x2="1" y2="0">
  <stop offset="0%"><animate attributeName="stop-color" values="#38bdf8;#818cf8;#38bdf8" dur="6s" repeatCount="indefinite"/></stop>
  <stop offset="100%"><animate attributeName="stop-color" values="#818cf8;#38bdf8;#818cf8" dur="6s" repeatCount="indefinite"/></stop>
</linearGradient>
<linearGradient id="fill" x1="0" y1="0" x2="1" y2="0">
  <stop offset="0%" stop-color="#0ea5e9"/>
  <stop offset="55%" stop-color="#38bdf8"/>
  <stop offset="100%" stop-color="#818cf8"/>
</linearGradient>
<linearGradient id="fillHot" x1="0" y1="0" x2="1" y2="0">
  <stop offset="0%" stop-color="#22d3ee"/>
  <stop offset="100%" stop-color="#34d399"/>
</linearGradient>
<linearGradient id="shine" x1="0" y1="0" x2="1" y2="0">
  <stop offset="0%" stop-color="#fff" stop-opacity="0"/>
  <stop offset="50%" stop-color="#fff" stop-opacity=".18"/>
  <stop offset="100%" stop-color="#fff" stop-opacity="0"/>
</linearGradient>
<clipPath id="c0"><rect x="248" y="78" width="364" height="10" rx="5"/></clipPath>
<clipPath id="c1"><rect x="248" y="126" width="364" height="10" rx="5"/></clipPath>
<clipPath id="c2"><rect x="248" y="174" width="364" height="10" rx="5"/></clipPath>
<clipPath id="c3"><rect x="248" y="222" width="364" height="10" rx="5"/></clipPath>
<clipPath id="c4"><rect x="248" y="270" width="364" height="10" rx="5"/></clipPath>
</defs>

<rect x="1" y="1" width="718" height="318" rx="14" fill="#0b1120" stroke="url(#border)" stroke-width="1.5"/>

<text x="28" y="38" font-size="15" font-weight="bold" fill="url(#border)">? Currently Building</text>
<text x="692" y="38" text-anchor="end" font-size="11" fill="#64748b">in progress</text>

<!-- Helios AI Runtime - 72% -->
<g class="row" style="animation-delay:.15s">
  <circle class="dot" cx="28" cy="83" r="3.5" fill="#38bdf8"/>
  <text x="42" y="87" font-size="13" fill="#e2e8f0">Helios AI Runtime</text>
  <rect x="248" y="78" width="364" height="10" rx="5" fill="#1e293b"/>
  <rect class="bar" x="248" y="78" width="262" height="10" rx="5" fill="url(#fill)" style="animation-delay:.35s"/>
  <g clip-path="url(#c0)"><rect class="sh" x="248" y="78" width="36" height="10" fill="url(#shine)" style="animation-delay:.9s"/></g>
  <text x="628" y="87" font-size="12" font-weight="bold" fill="#38bdf8">72%</text>
</g>

<!-- Distributed Scheduler - 58% -->
<g class="row" style="animation-delay:.30s">
  <circle class="dot" cx="28" cy="131" r="3.5" fill="#38bdf8" style="animation-delay:.3s"/>
  <text x="42" y="135" font-size="13" fill="#e2e8f0">Distributed Scheduler</text>
  <rect x="248" y="126" width="364" height="10" rx="5" fill="#1e293b"/>
  <rect class="bar" x="248" y="126" width="211" height="10" rx="5" fill="url(#fill)" style="animation-delay:.50s"/>
  <g clip-path="url(#c1)"><rect class="sh" x="248" y="126" width="36" height="10" fill="url(#shine)" style="animation-delay:1.1s"/></g>
  <text x="628" y="135" font-size="12" font-weight="bold" fill="#38bdf8">58%</text>
</g>

<!-- Knowledge Engine - 44% -->
<g class="row" style="animation-delay:.45s">
  <circle class="dot" cx="28" cy="179" r="3.5" fill="#818cf8" style="animation-delay:.5s"/>
  <text x="42" y="183" font-size="13" fill="#e2e8f0">Knowledge Engine</text>
  <rect x="248" y="174" width="364" height="10" rx="5" fill="#1e293b"/>
  <rect class="bar" x="248" y="174" width="160" height="10" rx="5" fill="url(#fill)" style="animation-delay:.65s"/>
  <g clip-path="url(#c2)"><rect class="sh" x="248" y="174" width="36" height="10" fill="url(#shine)" style="animation-delay:1.3s"/></g>
  <text x="628" y="183" font-size="12" font-weight="bold" fill="#818cf8">44%</text>
</g>

<!-- Multi-Agent Framework - 51% -->
<g class="row" style="animation-delay:.60s">
  <circle class="dot" cx="28" cy="227" r="3.5" fill="#818cf8" style="animation-delay:.7s"/>
  <text x="42" y="231" font-size="13" fill="#e2e8f0">Multi-Agent Framework</text>
  <rect x="248" y="222" width="364" height="10" rx="5" fill="#1e293b"/>
  <rect class="bar" x="248" y="222" width="186" height="10" rx="5" fill="url(#fill)" style="animation-delay:.80s"/>
  <g clip-path="url(#c3)"><rect class="sh" x="248" y="222" width="36" height="10" fill="url(#shine)" style="animation-delay:1.5s"/></g>
  <text x="628" y="231" font-size="12" font-weight="bold" fill="#818cf8">51%</text>
</g>

<!-- Deep Research Platform - 86% -->
<g class="row" style="animation-delay:.75s">
  <circle class="dot" cx="28" cy="275" r="3.5" fill="#34d399" style="animation-delay:.9s"/>
  <text x="42" y="279" font-size="13" fill="#e2e8f0">Deep Research Platform</text>
  <rect x="248" y="270" width="364" height="10" rx="5" fill="#1e293b"/>
  <rect class="bar" x="248" y="270" width="313" height="10" rx="5" fill="url(#fillHot)" style="animation-delay:.95s"/>
  <g clip-path="url(#c4)"><rect class="sh" x="248" y="270" width="36" height="10" fill="url(#shine)" style="animation-delay:1.7s"/></g>
  <text x="628" y="279" font-size="12" font-weight="bold" fill="#34d399">86%</text>
</g>
</svg>
